<svg width="225" height="225" xmlns="http://www.w3.org/2000/svg">
 <!-- Created with Method Draw - http://github.com/duopixel/Method-Draw/ -->

 <g>
  <title>background</title>
  <rect x="-1" y="-1" width="88.872634" height="88.872634" id="canvas_background" fill="none"/>
  <g id="canvasGrid" display="none">
   <rect id="svg_1" width="100%" height="100%" x="0" y="0" stroke-width="0" fill="url(#gridpattern)"/>
  </g>
 </g>
 <g>
  <title>Layer 1</title>
  <path id="svg_5" d="m207.292769,0.541151l-189.093534,0c-9.489057,0 -17.190321,7.701264 -17.190321,17.190322l0,189.093545c0,9.489058 7.701264,17.190322 17.190321,17.190322l189.093534,0c9.489057,0 17.190321,-7.701264 17.190321,-17.190322l0,-189.093545c0,-9.489058 -7.701264,-17.190322 -17.190321,-17.190322zm-137.78902,203.327132l-34.380642,0l0,-120.332256l34.380642,0l0,120.332256zm-17.190321,-133.224998c-11.887107,0 -21.487902,-9.617985 -21.487902,-21.487903s9.600794,-21.487903 21.487902,-21.487903s21.487902,9.617985 21.487902,21.487903s-9.600794,21.487903 -21.487902,21.487903zm137.52257,133.224998l-34.380642,0l0,-73.05887c0,-3.438064 -3.46385,-9.067895 -5.904875,-10.42593c-3.223185,-1.813579 -10.838498,-1.968292 -14.310942,-0.292235l-14.164825,6.815963l0,76.961073l-34.380642,0l0,-120.332256l34.380642,0l0,5.277429c13.606139,-6.214301 32.489707,-5.604045 45.296496,1.58151c13.597544,7.615313 23.464788,24.616541 23.464788,40.414448l0,73.05887z" fill-opacity="null" stroke-opacity="0" stroke-width="5" stroke="#000000" fill="#cccccc"/>
 </g>
</svg>